<svg xmlns="http://www.w3.org/2000/svg" xmlns:xlink="http://www.w3.org/1999/xlink" style="enable-background:new 0 0 485 485" id="Layer_1" width="512" height="512" x="0" y="0" version="1.1" viewBox="0 0 485 485" xml:space="preserve"><g><polygon fill="#FFF" points="30 30 106 30 106 0 0 0 0 106 30 106"/><polygon fill="#FFF" points="379 0 379 30 455 30 455 106 485 106 485 0"/><polygon fill="#FFF" points="455 455 379 455 379 485 485 485 485 379 455 379"/><polygon fill="#FFF" points="30 379 0 379 0 485 106 485 106 455 30 455"/><path fill="#FFF" d="M274.405,175c26.191,0,47.5-21.309,47.5-47.5S300.597,80,274.405,80s-47.5,21.309-47.5,47.5S248.214,175,274.405,175z"/><polygon fill="#FFF" points="80 405 405 405 405 308.18 346.358 246.304 275.241 287.672 176.238 216.922 80 318.465"/></g></svg>